<svg width="65" height="22" fill="none" xmlns="http://www.w3.org/2000/svg"><path d="M.122 20.184V2.165A1.584 1.584 0 0 1 1.03.734l10.598 10.438-10.602 10.44a1.594 1.594 0 0 1-.904-1.427Zm14.89-5.655L3.506 20.94l9.075-8.755 2.431 2.345Zm3.466-4.3c.362.295.595.76.595 1.283 0 .515-.226.975-.578 1.27l-2.31 1.422-2.526-2.695 2.525-2.693 2.294 1.413ZM3.506 1.41l11.506 6.409-2.43 2.345-9.076-8.755Zm39.256 6.397c0 1.744-1.367 3.03-3.045 3.03-1.679 0-3.046-1.286-3.046-3.03 0-1.758 1.367-3.03 3.046-3.03 1.678 0 3.045 1.272 3.045 3.03Zm-1.333 0c0-1.09-.792-1.836-1.712-1.836-.92 0-1.713.746-1.713 1.836 0 1.08.792 1.837 1.713 1.837.92 0 1.712-.759 1.712-1.837Zm8.102 0c0 1.744-1.368 3.03-3.046 3.03-1.679 0-3.046-1.286-3.046-3.03 0-1.756 1.367-3.03 3.046-3.03 1.678 0 3.046 1.272 3.046 3.03Zm-1.334 0c0-1.09-.792-1.836-1.712-1.836-.92 0-1.712.746-1.712 1.836 0 1.08.791 1.837 1.712 1.837.92 0 1.712-.759 1.712-1.837ZM56.3 4.958v5.428c0 2.233-1.384 3.145-3.02 3.145-1.54 0-2.467-.98-2.816-1.782l1.215-.481c.216.491.745 1.073 1.6 1.073 1.047 0 1.696-.615 1.696-1.772v-.435h-.05c-.311.367-.913.687-1.672.687-1.589 0-3.045-1.317-3.045-3.01 0-1.709 1.456-3.035 3.045-3.035.758 0 1.36.32 1.673.676h.049V4.96h1.325v-.002Zm-1.227 2.851c0-1.064-.746-1.842-1.696-1.842-.962 0-1.769.778-1.769 1.842 0 1.054.807 1.822 1.77 1.822.949 0 1.695-.768 1.695-1.822Zm3.257-5.727v8.081h-1.353V2.082h1.353Zm5.036 6.723 1 .689c-.322.493-1.1 1.343-2.446 1.343-1.667 0-2.913-1.331-2.913-3.03 0-1.803 1.256-3.031 2.768-3.031 1.525 0 2.27 1.25 2.513 1.928l.134.344-3.924 1.677c.3.609.767.919 1.422.919.657 0 1.112-.333 1.446-.84Zm-3.08-1.09 2.623-1.125c-.144-.379-.579-.642-1.09-.642-.655 0-1.566.597-1.533 1.767Zm-28.51-1.103V5.415h4.157c.041.21.062.455.062.722 0 .897-.253 2.007-1.069 2.798-.792.801-1.807 1.228-3.149 1.228-2.488 0-4.58-1.965-4.58-4.377 0-2.413 2.092-4.378 4.58-4.378 1.377 0 2.357.524 3.095 1.206l-.87.844a3.2 3.2 0 0 0-2.226-.854c-1.817 0-3.238 1.42-3.238 3.182s1.421 3.181 3.238 3.181c1.179 0 1.85-.458 2.28-.875.349-.338.578-.822.669-1.482l-2.95.002Z" fill="#295091"/></svg>